<svg width="13" height="13" viewBox="0 0 13 13" fill="none" xmlns="http://www.w3.org/2000/svg">
<path d="M11.2848 1.12882L9.14101 0.649897C8.63928 0.535867 8.13755 0.786732 7.9551 1.24285L6.95164 3.56906C6.76919 3.97957 6.88322 4.4813 7.24812 4.77777L8.16036 5.53037C7.52179 6.71628 6.51833 7.69693 5.33242 8.35831L4.57982 7.44607C4.28334 7.08117 3.78161 6.96714 3.37111 7.14959L1.0449 8.13025C0.58878 8.3355 0.337914 8.83723 0.451944 9.33896L0.930869 11.4827C1.0449 11.9616 1.47821 12.2809 1.95714 12.2809C7.54459 12.2809 12.1058 7.76535 12.1058 2.15509C12.1058 1.67616 11.7637 1.24285 11.2848 1.12882ZM2.00275 11.1862L1.52382 9.13371L3.75881 8.17586L5.03594 9.72666C7.29373 8.65478 8.45683 7.49168 9.52871 5.23389L7.97791 3.95676L8.93576 1.72178L11.0111 2.2007C10.9883 7.14959 6.95164 11.1634 2.00275 11.1862Z" fill="black"/>
</svg>
