<svg width="11" height="12" viewBox="0 0 11 12" fill="none" xmlns="http://www.w3.org/2000/svg">
<path d="M10.3725 3.71033C10.5094 3.71033 10.6462 3.5963 10.6462 3.43666V2.52442C10.6462 2.38758 10.5094 2.25075 10.3725 2.25075H9.91641V1.15606C9.91641 0.563108 9.41468 0.0613769 8.82173 0.0613769H1.52382C0.908063 0.0613769 0.429138 0.563108 0.429138 1.15606V10.6433C0.429138 11.2591 0.908063 11.738 1.52382 11.738H8.82173C9.41468 11.738 9.91641 11.2591 9.91641 10.6433V9.54865H10.3725C10.5094 9.54865 10.6462 9.43462 10.6462 9.27498V8.36274C10.6462 8.22591 10.5094 8.08907 10.3725 8.08907H9.91641V6.62949H10.3725C10.5094 6.62949 10.6462 6.51546 10.6462 6.35582V5.44358C10.6462 5.30675 10.5094 5.16991 10.3725 5.16991H9.91641V3.71033H10.3725ZM8.82173 10.6433H1.52382V1.15606H8.82173V10.6433ZM5.17278 5.8997C5.97098 5.8997 6.63236 5.26113 6.63236 4.44012C6.63236 3.64191 5.97098 2.98054 5.17278 2.98054C4.35176 2.98054 3.71319 3.64191 3.71319 4.44012C3.71319 5.26113 4.35176 5.8997 5.17278 5.8997ZM3.12024 8.81886H7.20251C7.49898 8.81886 7.72704 8.63641 7.72704 8.38555V7.95224C7.72704 7.22245 7.02006 6.62949 6.17624 6.62949C5.94818 6.62949 5.76573 6.81194 5.17278 6.81194C4.55702 6.81194 4.39737 6.62949 4.14651 6.62949C3.30269 6.62949 2.61851 7.22245 2.61851 7.95224V8.38555C2.61851 8.63641 2.84657 8.81886 3.12024 8.81886Z" fill="black"/>
</svg>
