<svg width="13" height="10" viewBox="0 0 13 10" fill="none" xmlns="http://www.w3.org/2000/svg">
<path d="M11.0111 0.626793H1.52382C0.908063 0.626793 0.429138 1.12852 0.429138 1.72148V8.28959C0.429138 8.90535 0.908063 9.38428 1.52382 9.38428H11.0111C11.6041 9.38428 12.1058 8.90535 12.1058 8.28959V1.72148C12.1058 1.12852 11.6041 0.626793 11.0111 0.626793ZM11.0111 1.72148V2.65652C10.4866 3.08984 9.66555 3.7284 7.9323 5.09676C7.54459 5.39324 6.792 6.12303 6.26746 6.10022C5.72012 6.12303 4.96752 5.39324 4.57982 5.09676C2.84657 3.7284 2.02555 3.08984 1.52382 2.65652V1.72148H11.0111ZM1.52382 8.28959V4.07049C2.02555 4.481 2.77815 5.07395 3.89564 5.96338C4.39737 6.35109 5.28681 7.21771 6.26746 7.19491C7.22531 7.21771 8.09194 6.35109 8.61647 5.96338C9.73397 5.07395 10.4866 4.481 11.0111 4.07049V8.28959H1.52382Z" fill="black"/>
</svg>
