<svg width="12" height="12" viewBox="0 0 12 12" fill="none" xmlns="http://www.w3.org/2000/svg">
<path d="M6.08501 0.329701C2.9606 0.329701 0.429138 2.86116 0.429138 5.98558C0.429138 9.10999 2.9606 11.6415 6.08501 11.6415C9.20943 11.6415 11.7409 9.10999 11.7409 5.98558C11.7409 2.86116 9.20943 0.329701 6.08501 0.329701ZM10.1673 3.97865H8.63928C8.47964 3.15764 8.22877 2.42785 7.90949 1.83489C8.89015 2.26821 9.68835 3.0208 10.1673 3.97865ZM6.08501 1.42439C6.49552 1.42439 7.1797 2.38224 7.52179 3.97865H4.62543C4.96752 2.38224 5.6517 1.42439 6.08501 1.42439ZM1.52382 5.98558C1.52382 5.6891 1.54663 5.36982 1.61505 5.07334H3.37111C3.3483 5.39262 3.3483 5.6891 3.3483 5.98558C3.3483 6.30486 3.3483 6.60134 3.37111 6.89781H1.61505C1.54663 6.62414 1.52382 6.30486 1.52382 5.98558ZM1.97994 7.9925H3.50794C3.66758 8.83632 3.91845 9.56611 4.23773 10.1591C3.25708 9.72575 2.45887 8.95035 1.97994 7.9925ZM3.50794 3.97865H1.97994C2.45887 3.0208 3.25708 2.26821 4.23773 1.83489C3.91845 2.42785 3.66758 3.15764 3.50794 3.97865ZM6.08501 10.5468C5.6517 10.5468 4.96752 9.61172 4.62543 7.9925H7.52179C7.1797 9.61172 6.49552 10.5468 6.08501 10.5468ZM7.68143 6.89781H4.46579C4.44299 6.62414 4.44299 6.30486 4.44299 5.98558C4.44299 5.66629 4.44299 5.36982 4.46579 5.07334H7.68143C7.70424 5.36982 7.72704 5.66629 7.72704 5.98558C7.72704 6.30486 7.70424 6.62414 7.68143 6.89781ZM7.90949 10.1591C8.22877 9.56611 8.47964 8.83632 8.63928 7.9925H10.1673C9.68835 8.95035 8.89015 9.72575 7.90949 10.1591ZM8.77612 6.89781C8.79892 6.60134 8.82173 6.30486 8.82173 5.98558C8.82173 5.6891 8.79892 5.39262 8.77612 5.07334H10.555C10.6006 5.36982 10.6462 5.6891 10.6462 5.98558C10.6462 6.30486 10.6006 6.62414 10.555 6.89781H8.77612Z" fill="black"/>
</svg>
